<svg width="512" height="512" viewBox="0 0 512 512" fill="none" xmlns="http://www.w3.org/2000/svg">
<rect width="512" height="512" fill="#0A0A0A"/>
<path d="M136.8 409.3C131.733 406.513 128.313 403.22 126.54 399.42C124.767 395.62 124.007 391.44 124.26 386.88C124.767 382.32 125.653 377.633 126.92 372.82C128.947 364.713 131.1 358 133.38 352.68C135.913 347.107 138.32 341.407 140.6 335.58C143.133 329.5 145.287 321.773 147.06 312.4C151.113 303.027 154.66 294.16 157.7 285.8C160.993 277.44 163.527 270.6 165.3 265.28C167.073 259.96 167.96 257.3 167.96 257.3C168.213 256.287 169.227 253.627 171 249.32C173.027 245.013 175.433 239.82 178.22 233.74C181.26 227.407 184.173 221.073 186.96 214.74C191.267 202.58 195.32 192.32 199.12 183.96C202.92 175.347 206.72 167.62 210.52 160.78C214.573 153.94 218.88 147.1 223.44 140.26C226.48 134.94 230.787 131.773 236.36 130.76C241.933 129.747 247.253 130.38 252.32 132.66C257.387 134.687 260.68 138.233 262.2 143.3C263.467 145.833 264.48 148.747 265.24 152.04C266.253 155.333 267.14 160.273 267.9 166.86C268.913 173.193 269.547 182.44 269.8 194.6C270.307 209.04 270.56 222.34 270.56 234.5C270.813 246.407 271.32 257.427 272.08 267.56C273.093 277.693 274.74 286.94 277.02 295.3C277.78 299.86 278.54 305.433 279.3 312.02C280.06 318.353 280.82 324.687 281.58 331.02C282.593 337.353 283.607 342.673 284.62 346.98C285.633 351.033 286.647 353.06 287.66 353.06C288.927 353.06 290.32 352.047 291.84 350.02C293.613 347.74 295.893 343.053 298.68 335.96C301.467 328.867 305.013 317.973 309.32 303.28C313.627 288.587 318.82 268.827 324.9 244C326.167 239.693 327.813 232.727 329.84 223.1C332.12 213.473 333.767 203.72 334.78 193.84C336.553 187.507 338.327 180.54 340.1 172.94C341.873 165.34 343.393 158.627 344.66 152.8C346.18 146.973 346.94 143.68 346.94 142.92C346.94 141.147 346.94 139.627 346.94 138.36C347.193 137.093 347.193 135.827 346.94 134.56C348.207 134.56 349.347 132.913 350.36 129.62C351.373 126.073 351.88 123.033 351.88 120.5C351.88 116.193 352.387 112.773 353.4 110.24C354.667 107.453 355.933 105.427 357.2 104.16C359.987 99.0933 363.533 96.56 367.84 96.56C372.4 96.3067 376.58 97.5733 380.38 100.36C384.18 102.893 386.46 106.06 387.22 109.86C387.727 112.647 386.967 118.98 384.94 128.86C383.167 138.487 380.38 151.533 376.58 168C376.58 170.787 375.82 175.347 374.3 181.68C372.78 188.013 371.133 194.727 369.36 201.82C367.84 208.913 366.7 214.993 365.94 220.06C364.927 226.647 363.787 232.853 362.52 238.68C361.253 244.253 359.987 246.913 358.72 246.66C352.133 275.287 345.167 299.733 337.82 320C330.727 340.013 324.393 356.353 318.82 369.02C312.74 382.953 304.887 391.82 295.26 395.62C285.887 399.673 277.147 396.507 269.04 386.12C264.227 379.533 260.173 373.073 256.88 366.74C253.587 360.407 250.927 352.933 248.9 344.32C246.873 335.707 245.1 324.813 243.58 311.64C242.06 301 240.667 290.613 239.4 280.48C238.387 270.093 237.627 259.58 237.12 248.94C236.613 238.047 236.487 226.52 236.74 214.36C236.993 199.92 236.36 191.433 234.84 188.9C233.573 186.367 231.673 187.76 229.14 193.08C226.607 198.4 223.693 205.62 220.4 214.74C218.627 219.807 216.473 225.633 213.94 232.22C211.66 238.553 209.253 244.887 206.72 251.22C204.187 257.553 202.033 263 200.26 267.56C198.487 272.12 197.347 275.033 196.84 276.3C195.32 279.34 193.547 283.393 191.52 288.46C189.493 293.273 187.847 298.467 186.58 304.04C177.46 327.853 170.62 348.373 166.06 365.6C161.753 382.573 158.587 393.847 156.56 399.42C154.027 406.513 151.62 410.82 149.34 412.34C147.313 413.86 143.133 412.847 136.8 409.3Z" fill="white"/>
</svg>
